<svg xmlns="http://www.w3.org/2000/svg" width="2048" height="2048" viewBox="0 0 2048 2048" version="1.1"><path d="M 479.913 516.500 C 478.835 518.700, 476.791 522.438, 475.371 524.806 L 472.789 529.112 476.144 533.979 C 480.680 540.557, 495.337 558.655, 519.491 587.500 C 530.544 600.700, 544.282 617.350, 550.019 624.500 C 555.756 631.650, 568.398 647.014, 578.112 658.642 C 587.826 670.269, 602.012 687.514, 609.637 696.963 C 617.262 706.412, 626.344 717.599, 629.819 721.822 C 633.295 726.045, 642.444 737.375, 650.152 747 C 657.859 756.625, 665.633 766.300, 667.427 768.500 C 669.221 770.700, 678.972 782.774, 689.095 795.331 C 699.218 807.889, 710.200 821.422, 713.500 825.406 C 716.800 829.390, 726.779 841.693, 735.675 852.747 C 744.571 863.801, 755.857 877.717, 760.755 883.672 C 765.653 889.628, 773.837 899.675, 778.941 906 C 784.046 912.325, 799.662 931.675, 813.645 949 C 827.628 966.325, 842.432 984.550, 846.542 989.500 C 856.881 1001.951, 867.666 1016.955, 869.596 1021.575 C 871.744 1026.715, 871.017 1032.251, 867.213 1039.737 C 863.550 1046.946, 854.580 1059.665, 845.846 1070.035 C 829.621 1089.300, 819.533 1101.515, 809.948 1113.500 C 804.230 1120.650, 795.710 1131, 791.016 1136.500 C 786.322 1142, 779.361 1150.550, 775.546 1155.500 C 768.460 1164.696, 722.597 1221.910, 711.173 1235.805 C 707.693 1240.037, 701.205 1248.225, 696.753 1254 C 692.302 1259.775, 682.099 1272.329, 674.080 1281.898 C 658.379 1300.633, 653.109 1307.116, 643 1320.126 C 639.425 1324.728, 629.949 1336.369, 621.941 1345.996 C 606.721 1364.295, 588.939 1386.177, 556.520 1426.500 C 545.908 1439.700, 527.711 1462.200, 516.083 1476.500 C 487.569 1511.564, 487.466 1511.721, 487.637 1519.379 C 487.773 1525.492, 489.910 1532.208, 492.160 1533.599 C 492.815 1534.004, 515.434 1534.182, 542.425 1533.996 C 569.416 1533.810, 605 1533.622, 621.500 1533.579 C 650.327 1533.503, 651.659 1533.415, 655.569 1531.322 C 666.659 1525.386, 672.940 1518.694, 706.651 1476.894 C 718.668 1461.993, 736.600 1439.769, 746.500 1427.508 C 756.400 1415.246, 774.383 1392.903, 786.463 1377.857 C 798.543 1362.811, 808.686 1350.275, 809.003 1350 C 809.320 1349.725, 814.225 1343.650, 819.903 1336.500 C 825.580 1329.350, 830.962 1322.591, 831.863 1321.481 C 860.188 1286.548, 910.709 1223.517, 938.850 1188 C 979.950 1136.128, 998.046 1114.081, 1004.638 1107.848 C 1009.338 1103.404, 1015.593 1099.992, 1018.985 1100.022 C 1023.078 1100.058, 1029.158 1103.423, 1034.532 1108.627 C 1039.556 1113.492, 1061.813 1140.591, 1084.500 1169.466 C 1095.957 1184.047, 1107.866 1198.734, 1139.966 1237.865 C 1156.352 1257.842, 1182.921 1290.843, 1224.560 1342.941 C 1232.227 1352.534, 1248.337 1372.559, 1260.360 1387.441 C 1272.383 1402.324, 1287.908 1421.666, 1294.860 1430.424 C 1306.254 1444.779, 1321.899 1463.941, 1352.689 1501.256 C 1370.197 1522.474, 1380.522 1530.634, 1392.810 1532.964 C 1395.740 1533.520, 1422.265 1533.949, 1454.719 1533.966 C 1485.948 1533.982, 1518.519 1534.288, 1527.097 1534.645 C 1535.675 1535.002, 1543.906 1534.989, 1545.388 1534.618 C 1548.894 1533.738, 1554 1525.821, 1554 1521.264 C 1554 1514.193, 1551.401 1510.478, 1514 1464.091 C 1498.325 1444.649, 1482.837 1425.313, 1479.582 1421.121 C 1476.327 1416.930, 1465.302 1403.404, 1455.082 1391.064 C 1444.862 1378.724, 1431.100 1361.787, 1424.500 1353.424 C 1417.900 1345.062, 1409.586 1334.683, 1406.024 1330.360 C 1402.463 1326.037, 1393.993 1315.525, 1387.203 1307 C 1374.462 1291.005, 1358.288 1271.098, 1349.449 1260.536 C 1346.671 1257.216, 1331.607 1238.525, 1315.974 1219 C 1300.340 1199.475, 1283.100 1178.100, 1277.662 1171.500 C 1272.224 1164.900, 1263.235 1153.875, 1257.686 1147 C 1252.138 1140.125, 1243.275 1129.325, 1237.991 1123 C 1232.707 1116.675, 1220.270 1101.375, 1210.353 1089 C 1200.436 1076.625, 1188.609 1062.225, 1184.070 1057 C 1174.769 1046.294, 1168 1033.899, 1168 1027.573 C 1168 1023.145, 1173.152 1012.751, 1179.359 1004.658 C 1181.636 1001.688, 1189.575 991.932, 1197 982.978 C 1204.425 974.023, 1220.134 954.729, 1231.909 940.101 C 1243.684 925.473, 1256.997 909.229, 1261.492 904.003 C 1265.988 898.776, 1274.495 888.425, 1280.398 881 C 1292.616 865.631, 1303.007 852.723, 1311 842.986 C 1317.652 834.884, 1324.153 826.867, 1353.563 790.500 C 1366.017 775.100, 1380.122 757.775, 1384.908 752 C 1389.694 746.225, 1396.265 738.125, 1399.509 734 C 1413.332 716.423, 1417.189 711.637, 1430.537 695.500 C 1438.271 686.150, 1448.394 673.775, 1453.032 668 C 1457.671 662.225, 1466.659 651.200, 1473.005 643.500 C 1479.352 635.800, 1485.660 628.109, 1487.022 626.408 C 1488.385 624.708, 1497.362 613.908, 1506.970 602.408 C 1516.579 590.909, 1529.840 574.975, 1536.439 567 C 1543.039 559.025, 1550.027 550.783, 1551.969 548.683 C 1553.911 546.584, 1557.188 542.376, 1559.250 539.332 C 1562.659 534.301, 1563 533.190, 1563 527.099 C 1563 523.415, 1562.588 519.973, 1562.085 519.450 C 1561.581 518.928, 1561.019 517.375, 1560.835 516 C 1560.517 513.626, 1560.072 513.462, 1552 512.749 C 1547.325 512.337, 1512.225 512.160, 1474 512.358 C 1407.710 512.701, 1404.267 512.808, 1399.450 514.686 C 1388.765 518.853, 1381.256 525.700, 1364.707 546.365 C 1334.725 583.803, 1324.204 596.746, 1306.070 618.500 C 1295.739 630.892, 1272.774 658.759, 1249.619 687 C 1245.335 692.225, 1236.380 703.250, 1229.719 711.500 C 1223.058 719.750, 1213.276 731.482, 1207.981 737.572 C 1199.210 747.659, 1189.987 758.900, 1164.602 790.443 C 1159.708 796.524, 1150.449 807.575, 1144.026 815 C 1137.604 822.425, 1127.465 834.575, 1121.496 842 C 1110.597 855.556, 1099.602 868.956, 1073.497 900.500 C 1065.759 909.850, 1055.882 922, 1051.546 927.500 C 1043.127 938.182, 1030.904 950.605, 1024.725 954.760 L 1020.949 957.299 1013.334 953.400 C 1004.603 948.929, 1000.962 945.179, 979.937 919 C 964.848 900.212, 954.180 887.192, 952.079 885 C 951.289 884.175, 945.439 876.975, 939.080 869 C 932.722 861.025, 927.279 854.275, 926.985 854 C 926.311 853.368, 907.348 830.016, 904.013 825.711 C 893.707 812.404, 876.557 791.219, 871.057 785 C 861.956 774.710, 847.924 757.860, 824.938 729.619 C 797.777 696.251, 786.584 682.650, 772.992 666.500 C 766.511 658.800, 758.124 648.635, 754.354 643.912 C 750.584 639.188, 740.284 626.813, 731.464 616.412 C 722.644 606.010, 713.876 595.475, 711.979 593 C 698.951 575.999, 663.801 534.111, 657.859 528.506 C 652.939 523.864, 648.413 520.691, 643.578 518.492 C 629.932 512.286, 633.122 512.500, 554.187 512.500 L 481.873 512.500 479.913 516.500 M 413.578 759.750 C 413.163 760.163, 412.227 761.925, 411.497 763.668 C 408.497 770.834, 409.659 772.629, 456.233 832.754 C 461.880 840.043, 470.736 851.518, 475.913 858.254 C 481.091 864.989, 489.762 876.125, 495.182 883 C 500.603 889.875, 510.092 902.054, 516.269 910.065 C 522.446 918.076, 532.900 931.368, 539.500 939.603 C 546.100 947.838, 556 960.357, 561.500 967.423 C 567 974.490, 576.156 986.145, 581.846 993.323 C 594.627 1009.447, 601.867 1020.084, 602.619 1023.845 C 603.030 1025.899, 602.177 1028.913, 599.614 1034.460 C 594.131 1046.326, 585.798 1058.079, 562.007 1087.500 C 554.002 1097.400, 541.825 1112.700, 534.949 1121.500 C 511.554 1151.438, 508.500 1155.315, 486.189 1183.407 C 460.351 1215.941, 439.162 1242.479, 425.470 1259.453 C 411.235 1277.100, 408.252 1284.471, 412.090 1292.516 C 414.528 1297.625, 412.888 1297.828, 469.500 1285.406 C 481.050 1282.872, 495.380 1279.738, 501.344 1278.443 C 530.767 1272.051, 529.264 1273.158, 558.823 1236.097 C 566.895 1225.976, 575.975 1214.694, 579 1211.026 C 582.025 1207.358, 588.775 1198.842, 594 1192.101 C 599.225 1185.360, 608.810 1173.243, 615.301 1165.173 C 621.791 1157.103, 630.116 1146.707, 633.801 1142.071 C 644.909 1128.094, 662.197 1106.612, 678.800 1086.154 C 708.081 1050.074, 710.085 1047.506, 714.771 1040.051 C 718.133 1034.705, 719.455 1031.573, 719.455 1028.954 C 719.455 1022.223, 711.439 1008.873, 698.152 993.475 C 697.191 992.362, 677.112 967.387, 653.532 937.975 C 629.952 908.564, 607.698 881.115, 604.080 876.978 C 595.837 867.554, 593.256 864.392, 577.170 844 C 553.715 814.267, 540.049 797.596, 534.260 791.657 C 525.482 782.650, 520.214 780.457, 492 774.060 C 482.375 771.877, 468.456 768.710, 461.070 767.021 C 446.832 763.766, 420.413 759, 416.605 759 C 415.356 759, 413.994 759.337, 413.578 759.750 M 1611 761.571 C 1603.575 762.879, 1594.350 764.799, 1590.500 765.840 C 1578.221 769.158, 1551.818 775.805, 1542.063 778.034 C 1530.922 780.580, 1523.621 783.640, 1516.880 788.588 C 1511.724 792.373, 1499.538 806.570, 1484.253 826.599 C 1479.258 833.145, 1470.359 844.125, 1464.477 851 C 1458.596 857.875, 1450.940 867.100, 1447.465 871.500 C 1443.990 875.900, 1434.046 888.500, 1425.368 899.500 C 1416.689 910.500, 1404.360 925.800, 1397.970 933.500 C 1391.580 941.200, 1382.148 952.900, 1377.009 959.500 C 1371.871 966.100, 1365.574 973.975, 1363.017 977 C 1339.546 1004.761, 1329.162 1019.373, 1328.291 1025.868 C 1327.377 1032.684, 1334.469 1044.788, 1350.879 1064.420 C 1354.521 1068.777, 1361.100 1076.935, 1365.500 1082.549 C 1369.900 1088.164, 1387 1109.519, 1403.500 1130.006 C 1420 1150.492, 1435.279 1169.559, 1437.453 1172.377 C 1442.242 1178.585, 1469.073 1212.217, 1478.637 1224 C 1482.431 1228.675, 1489.353 1237.419, 1494.018 1243.432 C 1506.037 1258.924, 1516.285 1269.077, 1523.079 1272.226 C 1530.230 1275.541, 1623.276 1296, 1631.199 1296 C 1635.324 1296, 1637.420 1292.197, 1636.691 1286.037 C 1635.746 1278.064, 1630.564 1269.618, 1617.030 1254 C 1608.754 1244.449, 1584.362 1213.919, 1570.292 1195.500 C 1566.931 1191.100, 1555.928 1177.088, 1545.841 1164.363 C 1535.753 1151.637, 1523.915 1136.576, 1519.533 1130.894 C 1515.152 1125.212, 1507.849 1116.049, 1503.304 1110.532 C 1484.975 1088.277, 1458.099 1053.613, 1452.844 1045.450 C 1448.503 1038.708, 1445 1031.207, 1445 1028.655 C 1445 1020.291, 1453.172 1008.713, 1504.049 945 C 1521.397 923.275, 1538.470 901.675, 1541.990 897 C 1545.510 892.325, 1551.822 884.225, 1556.017 879 C 1560.211 873.775, 1570.470 860.500, 1578.814 849.500 C 1595.255 827.827, 1613.358 804.291, 1623.550 791.338 C 1634.428 777.515, 1636.374 773.803, 1636.201 767.213 C 1635.958 757.963, 1633.992 757.523, 1611 761.571" stroke="none" fill="#56e2e5" fill-rule="evenodd"/><path d="M 0 1024 L 0 2048.001 1024.250 2047.750 L 2048.500 2047.500 2048.750 1023.750 L 2049.001 0 1024.500 0 L 0 0 0 1024 M 0.498 1024.500 C 0.498 1587.700, 0.611 1817.950, 0.750 1536.167 C 0.889 1254.384, 0.889 793.584, 0.750 512.167 C 0.611 230.750, 0.498 461.300, 0.498 1024.500 M 479.913 516.500 C 478.835 518.700, 476.791 522.438, 475.371 524.806 L 472.789 529.112 476.144 533.979 C 480.680 540.557, 495.337 558.655, 519.491 587.500 C 530.544 600.700, 544.282 617.350, 550.019 624.500 C 555.756 631.650, 568.398 647.014, 578.112 658.642 C 587.826 670.269, 602.012 687.514, 609.637 696.963 C 617.262 706.412, 626.344 717.599, 629.819 721.822 C 633.295 726.045, 642.444 737.375, 650.152 747 C 657.859 756.625, 665.633 766.300, 667.427 768.500 C 669.221 770.700, 678.972 782.774, 689.095 795.331 C 699.218 807.889, 710.200 821.422, 713.500 825.406 C 716.800 829.390, 726.779 841.693, 735.675 852.747 C 744.571 863.801, 755.857 877.717, 760.755 883.672 C 765.653 889.628, 773.837 899.675, 778.941 906 C 784.046 912.325, 799.662 931.675, 813.645 949 C 827.628 966.325, 842.432 984.550, 846.542 989.500 C 856.881 1001.951, 867.666 1016.955, 869.596 1021.575 C 871.744 1026.715, 871.017 1032.251, 867.213 1039.737 C 863.550 1046.946, 854.580 1059.665, 845.846 1070.035 C 829.621 1089.300, 819.533 1101.515, 809.948 1113.500 C 804.230 1120.650, 795.710 1131, 791.016 1136.500 C 786.322 1142, 779.361 1150.550, 775.546 1155.500 C 768.460 1164.696, 722.597 1221.910, 711.173 1235.805 C 707.693 1240.037, 701.205 1248.225, 696.753 1254 C 692.302 1259.775, 682.099 1272.329, 674.080 1281.898 C 658.379 1300.633, 653.109 1307.116, 643 1320.126 C 639.425 1324.728, 629.949 1336.369, 621.941 1345.996 C 606.721 1364.295, 588.939 1386.177, 556.520 1426.500 C 545.908 1439.700, 527.711 1462.200, 516.083 1476.500 C 487.569 1511.564, 487.466 1511.721, 487.637 1519.379 C 487.773 1525.492, 489.910 1532.208, 492.160 1533.599 C 492.815 1534.004, 515.434 1534.182, 542.425 1533.996 C 569.416 1533.810, 605 1533.622, 621.500 1533.579 C 650.327 1533.503, 651.659 1533.415, 655.569 1531.322 C 666.659 1525.386, 672.940 1518.694, 706.651 1476.894 C 718.668 1461.993, 736.600 1439.769, 746.500 1427.508 C 756.400 1415.246, 774.383 1392.903, 786.463 1377.857 C 798.543 1362.811, 808.686 1350.275, 809.003 1350 C 809.320 1349.725, 814.225 1343.650, 819.903 1336.500 C 825.580 1329.350, 830.962 1322.591, 831.863 1321.481 C 860.188 1286.548, 910.709 1223.517, 938.850 1188 C 979.950 1136.128, 998.046 1114.081, 1004.638 1107.848 C 1009.338 1103.404, 1015.593 1099.992, 1018.985 1100.022 C 1023.078 1100.058, 1029.158 1103.423, 1034.532 1108.627 C 1039.556 1113.492, 1061.813 1140.591, 1084.500 1169.466 C 1095.957 1184.047, 1107.866 1198.734, 1139.966 1237.865 C 1156.352 1257.842, 1182.921 1290.843, 1224.560 1342.941 C 1232.227 1352.534, 1248.337 1372.559, 1260.360 1387.441 C 1272.383 1402.324, 1287.908 1421.666, 1294.860 1430.424 C 1306.254 1444.779, 1321.899 1463.941, 1352.689 1501.256 C 1370.197 1522.474, 1380.522 1530.634, 1392.810 1532.964 C 1395.740 1533.520, 1422.265 1533.949, 1454.719 1533.966 C 1485.948 1533.982, 1518.519 1534.288, 1527.097 1534.645 C 1535.675 1535.002, 1543.906 1534.989, 1545.388 1534.618 C 1548.894 1533.738, 1554 1525.821, 1554 1521.264 C 1554 1514.193, 1551.401 1510.478, 1514 1464.091 C 1498.325 1444.649, 1482.837 1425.313, 1479.582 1421.121 C 1476.327 1416.930, 1465.302 1403.404, 1455.082 1391.064 C 1444.862 1378.724, 1431.100 1361.787, 1424.500 1353.424 C 1417.900 1345.062, 1409.586 1334.683, 1406.024 1330.360 C 1402.463 1326.037, 1393.993 1315.525, 1387.203 1307 C 1374.462 1291.005, 1358.288 1271.098, 1349.449 1260.536 C 1346.671 1257.216, 1331.607 1238.525, 1315.974 1219 C 1300.340 1199.475, 1283.100 1178.100, 1277.662 1171.500 C 1272.224 1164.900, 1263.235 1153.875, 1257.686 1147 C 1252.138 1140.125, 1243.275 1129.325, 1237.991 1123 C 1232.707 1116.675, 1220.270 1101.375, 1210.353 1089 C 1200.436 1076.625, 1188.609 1062.225, 1184.070 1057 C 1174.769 1046.294, 1168 1033.899, 1168 1027.573 C 1168 1023.145, 1173.152 1012.751, 1179.359 1004.658 C 1181.636 1001.688, 1189.575 991.932, 1197 982.978 C 1204.425 974.023, 1220.134 954.729, 1231.909 940.101 C 1243.684 925.473, 1256.997 909.229, 1261.492 904.003 C 1265.988 898.776, 1274.495 888.425, 1280.398 881 C 1292.616 865.631, 1303.007 852.723, 1311 842.986 C 1317.652 834.884, 1324.153 826.867, 1353.563 790.500 C 1366.017 775.100, 1380.122 757.775, 1384.908 752 C 1389.694 746.225, 1396.265 738.125, 1399.509 734 C 1413.332 716.423, 1417.189 711.637, 1430.537 695.500 C 1438.271 686.150, 1448.394 673.775, 1453.032 668 C 1457.671 662.225, 1466.659 651.200, 1473.005 643.500 C 1479.352 635.800, 1485.660 628.109, 1487.022 626.408 C 1488.385 624.708, 1497.362 613.908, 1506.970 602.408 C 1516.579 590.909, 1529.840 574.975, 1536.439 567 C 1543.039 559.025, 1550.027 550.783, 1551.969 548.683 C 1553.911 546.584, 1557.188 542.376, 1559.250 539.332 C 1562.659 534.301, 1563 533.190, 1563 527.099 C 1563 523.415, 1562.588 519.973, 1562.085 519.450 C 1561.581 518.928, 1561.019 517.375, 1560.835 516 C 1560.517 513.626, 1560.072 513.462, 1552 512.749 C 1547.325 512.337, 1512.225 512.160, 1474 512.358 C 1407.710 512.701, 1404.267 512.808, 1399.450 514.686 C 1388.765 518.853, 1381.256 525.700, 1364.707 546.365 C 1334.725 583.803, 1324.204 596.746, 1306.070 618.500 C 1295.739 630.892, 1272.774 658.759, 1249.619 687 C 1245.335 692.225, 1236.380 703.250, 1229.719 711.500 C 1223.058 719.750, 1213.276 731.482, 1207.981 737.572 C 1199.210 747.659, 1189.987 758.900, 1164.602 790.443 C 1159.708 796.524, 1150.449 807.575, 1144.026 815 C 1137.604 822.425, 1127.465 834.575, 1121.496 842 C 1110.597 855.556, 1099.602 868.956, 1073.497 900.500 C 1065.759 909.850, 1055.882 922, 1051.546 927.500 C 1043.127 938.182, 1030.904 950.605, 1024.725 954.760 L 1020.949 957.299 1013.334 953.400 C 1004.603 948.929, 1000.962 945.179, 979.937 919 C 964.848 900.212, 954.180 887.192, 952.079 885 C 951.289 884.175, 945.439 876.975, 939.080 869 C 932.722 861.025, 927.279 854.275, 926.985 854 C 926.311 853.368, 907.348 830.016, 904.013 825.711 C 893.707 812.404, 876.557 791.219, 871.057 785 C 861.956 774.710, 847.924 757.860, 824.938 729.619 C 797.777 696.251, 786.584 682.650, 772.992 666.500 C 766.511 658.800, 758.124 648.635, 754.354 643.912 C 750.584 639.188, 740.284 626.813, 731.464 616.412 C 722.644 606.010, 713.876 595.475, 711.979 593 C 698.951 575.999, 663.801 534.111, 657.859 528.506 C 652.939 523.864, 648.413 520.691, 643.578 518.492 C 629.932 512.286, 633.122 512.500, 554.187 512.500 L 481.873 512.500 479.913 516.500 M 413.578 759.750 C 413.163 760.163, 412.227 761.925, 411.497 763.668 C 408.497 770.834, 409.659 772.629, 456.233 832.754 C 461.880 840.043, 470.736 851.518, 475.913 858.254 C 481.091 864.989, 489.762 876.125, 495.182 883 C 500.603 889.875, 510.092 902.054, 516.269 910.065 C 522.446 918.076, 532.900 931.368, 539.500 939.603 C 546.100 947.838, 556 960.357, 561.500 967.423 C 567 974.490, 576.156 986.145, 581.846 993.323 C 594.627 1009.447, 601.867 1020.084, 602.619 1023.845 C 603.030 1025.899, 602.177 1028.913, 599.614 1034.460 C 594.131 1046.326, 585.798 1058.079, 562.007 1087.500 C 554.002 1097.400, 541.825 1112.700, 534.949 1121.500 C 511.554 1151.438, 508.500 1155.315, 486.189 1183.407 C 460.351 1215.941, 439.162 1242.479, 425.470 1259.453 C 411.235 1277.100, 408.252 1284.471, 412.090 1292.516 C 414.528 1297.625, 412.888 1297.828, 469.500 1285.406 C 481.050 1282.872, 495.380 1279.738, 501.344 1278.443 C 530.767 1272.051, 529.264 1273.158, 558.823 1236.097 C 566.895 1225.976, 575.975 1214.694, 579 1211.026 C 582.025 1207.358, 588.775 1198.842, 594 1192.101 C 599.225 1185.360, 608.810 1173.243, 615.301 1165.173 C 621.791 1157.103, 630.116 1146.707, 633.801 1142.071 C 644.909 1128.094, 662.197 1106.612, 678.800 1086.154 C 708.081 1050.074, 710.085 1047.506, 714.771 1040.051 C 718.133 1034.705, 719.455 1031.573, 719.455 1028.954 C 719.455 1022.223, 711.439 1008.873, 698.152 993.475 C 697.191 992.362, 677.112 967.387, 653.532 937.975 C 629.952 908.564, 607.698 881.115, 604.080 876.978 C 595.837 867.554, 593.256 864.392, 577.170 844 C 553.715 814.267, 540.049 797.596, 534.260 791.657 C 525.482 782.650, 520.214 780.457, 492 774.060 C 482.375 771.877, 468.456 768.710, 461.070 767.021 C 446.832 763.766, 420.413 759, 416.605 759 C 415.356 759, 413.994 759.337, 413.578 759.750 M 1611 761.571 C 1603.575 762.879, 1594.350 764.799, 1590.500 765.840 C 1578.221 769.158, 1551.818 775.805, 1542.063 778.034 C 1530.922 780.580, 1523.621 783.640, 1516.880 788.588 C 1511.724 792.373, 1499.538 806.570, 1484.253 826.599 C 1479.258 833.145, 1470.359 844.125, 1464.477 851 C 1458.596 857.875, 1450.940 867.100, 1447.465 871.500 C 1443.990 875.900, 1434.046 888.500, 1425.368 899.500 C 1416.689 910.500, 1404.360 925.800, 1397.970 933.500 C 1391.580 941.200, 1382.148 952.900, 1377.009 959.500 C 1371.871 966.100, 1365.574 973.975, 1363.017 977 C 1339.546 1004.761, 1329.162 1019.373, 1328.291 1025.868 C 1327.377 1032.684, 1334.469 1044.788, 1350.879 1064.420 C 1354.521 1068.777, 1361.100 1076.935, 1365.500 1082.549 C 1369.900 1088.164, 1387 1109.519, 1403.500 1130.006 C 1420 1150.492, 1435.279 1169.559, 1437.453 1172.377 C 1442.242 1178.585, 1469.073 1212.217, 1478.637 1224 C 1482.431 1228.675, 1489.353 1237.419, 1494.018 1243.432 C 1506.037 1258.924, 1516.285 1269.077, 1523.079 1272.226 C 1530.230 1275.541, 1623.276 1296, 1631.199 1296 C 1635.324 1296, 1637.420 1292.197, 1636.691 1286.037 C 1635.746 1278.064, 1630.564 1269.618, 1617.030 1254 C 1608.754 1244.449, 1584.362 1213.919, 1570.292 1195.500 C 1566.931 1191.100, 1555.928 1177.088, 1545.841 1164.363 C 1535.753 1151.637, 1523.915 1136.576, 1519.533 1130.894 C 1515.152 1125.212, 1507.849 1116.049, 1503.304 1110.532 C 1484.975 1088.277, 1458.099 1053.613, 1452.844 1045.450 C 1448.503 1038.708, 1445 1031.207, 1445 1028.655 C 1445 1020.291, 1453.172 1008.713, 1504.049 945 C 1521.397 923.275, 1538.470 901.675, 1541.990 897 C 1545.510 892.325, 1551.822 884.225, 1556.017 879 C 1560.211 873.775, 1570.470 860.500, 1578.814 849.500 C 1595.255 827.827, 1613.358 804.291, 1623.550 791.338 C 1634.428 777.515, 1636.374 773.803, 1636.201 767.213 C 1635.958 757.963, 1633.992 757.523, 1611 761.571" stroke="none" fill="#040404" fill-rule="evenodd"/></svg>