<svg width="180" height="180" viewBox="0 0 180 180" fill="none" xmlns="http://www.w3.org/2000/svg">
<path d="M19 84.6416L86.6375 17.0041C95.9763 7.66529 111.118 7.66529 120.456 17.0041C129.795 26.3428 129.795 41.4841 120.456 50.8229L69.3758 101.903" stroke="black" stroke-width="12" stroke-linecap="round"/>
<path d="M70.0811 101.199L120.457 50.8229C129.796 41.4841 144.937 41.4841 154.276 50.8229L154.628 51.1751C163.967 60.5139 163.967 75.6551 154.628 84.9938L93.4561 146.166C90.3432 149.279 90.3432 154.326 93.4561 157.438L106.017 170" stroke="black" stroke-width="12" stroke-linecap="round"/>
<path d="M103.547 33.9135L53.5236 83.9371C44.1848 93.2759 44.1848 108.417 53.5236 117.756C62.8625 127.094 78.0036 127.094 87.3424 117.756L137.366 67.7322" stroke="black" stroke-width="12" stroke-linecap="round"/>
</svg>
