<svg width="348" height="348" viewBox="0 0 348 348" fill="none" xmlns="http://www.w3.org/2000/svg">
<g clip-path="url(#clip0_252_2)">
<path d="M132.283 251.286C194.905 251.286 245.669 200.521 245.669 137.9C245.669 75.2787 194.905 24.5142 132.283 24.5142C69.662 24.5142 18.8975 75.2787 18.8975 137.9C18.8975 200.521 69.662 251.286 132.283 251.286Z" stroke="#3050FF" stroke-width="37.7953"/>
<path d="M100.511 77.4755C113.378 70.8189 128.034 68.4435 142.345 70.6953C156.656 72.9471 169.874 79.7085 180.075 89.9948C190.277 100.281 196.928 113.555 199.061 127.884C201.193 142.214 198.696 156.849 191.933 169.661" stroke="#3050FF" stroke-width="18.8976"/>
<path d="M237.541 191.799L188.271 243.24L297.35 347.717L346.621 296.276L237.541 191.799Z" fill="#3050FF"/>
</g>
<defs>
<clipPath id="clip0_252_2">
<rect width="347.717" height="347.717" fill="white"/>
</clipPath>
</defs>
</svg>
